<svg xmlns="http://www.w3.org/2000/svg" viewBox="0 0 1200 420" aria-hidden="true">
  <!-- Water haze (solid color, no gradients) -->
  <path d="M0 280 C180 320 360 240 540 280 C720 320 900 240 1080 280 C1140 294 1170 296 1200 290 L1200 420 L0 420 Z"
        fill="#acd6e7" opacity="0.28"/>

  <!-- Bridge deck -->
  <path d="M40 210 C240 170 420 170 600 210 C780 250 960 250 1160 210"
        fill="none" stroke="rgba(255,255,255,0.55)" stroke-width="10" stroke-linecap="round"/>

  <!-- Piers -->
  <g stroke="rgba(255,255,255,0.35)" stroke-width="6" stroke-linecap="round">
    <path d="M140 215 L140 290"/>
    <path d="M260 205 L260 295"/>
    <path d="M380 198 L380 300"/>
    <path d="M500 200 L500 305"/>
    <path d="M620 215 L620 305"/>
    <path d="M740 230 L740 305"/>
    <path d="M860 240 L860 300"/>
    <path d="M980 235 L980 295"/>
    <path d="M1100 220 L1100 290"/>
  </g>

  <!-- Subtle sun -->
  <circle cx="980" cy="90" r="56" fill="#acd6e7" opacity="0.20"/>
</svg>
